<?xml version="1.0" encoding="UTF-8" standalone="no"?>
<svg
   xmlns:dc="http://purl.org/dc/elements/1.1/"
   xmlns:cc="http://creativecommons.org/ns#"
   xmlns:rdf="http://www.w3.org/1999/02/22-rdf-syntax-ns#"
   xmlns:svg="http://www.w3.org/2000/svg"
   xmlns="http://www.w3.org/2000/svg"
   xml:space="preserve"
   enable-background="0 0 201 36"
   viewBox="0 0 211 36"
   height="36px"
   width="201px"
   y="0px"
   x="0px"
   id="Layer_1"
   version="1.1">
 />
<g
   transform="matrix(0.26908002,0,0,0.25468337,-8.0503359,-60.39228)"
   id="g163">
	<g
   id="g161">
		<path
   id="path159"
   d="M 75.615,237.499 29.918,334.4 h 20.69 l 9.229,-20.488 h 50.906 l 9.229,20.488 h 21.434 L 96.305,237.499 Z m -8.634,60.493 18.458,-40.698 18.16,40.698 z m 301.55,-60.493 -45.697,96.901 h 20.69 l 9.228,-20.488 h 50.906 l 9.229,20.488 h 21.436 l -45.102,-96.901 z m -8.633,60.493 18.457,-40.698 18.16,40.698 z M 480.463,334.4 h 19.946 v -38.346 h 47.186 v -16.196 h -47.186 v -26.163 h 51.799 l 0.15,-16.196 H 480.462 V 334.4 Z m 83.176,0 h 19.946 v -96.901 h -19.946 z m 113.959,-30.041 -53.733,-66.86 H 604.96 V 334.4 h 19.499 v -66.724 l 53.585,66.724 h 18.904 v -96.901 h -19.351 v 66.86 z m 113.406,-66.86 v 66.86 l -53.733,-66.86 H 718.368 V 334.4 h 19.498 v -66.724 l 53.586,66.724 h 18.903 v -96.901 z" />
	</g>
</g>
<g
   transform="matrix(0.26908002,0,0,0.25468337,-8.0503359,-60.39228)"
   id="g173">
	<g
   id="g167">
		<path
   id="path165"
   d="m 227.75,331.631 -73.383,-93.993 h -4.465 V 334.4 h 2.978 v -93.994 l 73.382,93.994 h 4.465 v -96.763 h -2.977 z m 101.737,-93.993 -39.742,56.755 -40.338,-56.755 h -3.572 l 42.422,59.524 V 334.4 h 2.977 v -37.238 l 41.826,-59.524 z"
   fill="#676767" />
	</g>
	<g
   id="g171">
		<path
   id="path169"
   d="m 227.75,331.631 -73.383,-93.993 h -4.465 V 334.4 h 2.978 v -93.994 l 73.382,93.994 h 4.465 v -96.763 h -2.977 z m 101.737,-93.993 -39.742,56.755 -40.338,-56.755 h -3.572 l 42.422,59.524 V 334.4 h 2.977 v -37.238 l 41.826,-59.524 z"
   stroke-miterlimit="10"
   stroke="#676767"
   fill="none" />
	</g>
</g>
<g
   transform="matrix(0.26908002,0,0,0.25468337,-8.0503359,-60.39228)"
   id="g179">
	<g
   id="g177">
		<path
   id="path175"
   d="m 175.104,375.749 -22.809,-26.444 h -2.393 v 29.019 h 2.052 V 351.92 l 22.76,26.404 h 2.393 v -29.019 h -2.002 v 26.444 z m 18.218,-11.416 H 211.1 v -1.745 h -17.778 v -11.581 h 19.976 v -1.702 h -22.027 v 29.019 h 22.662 v -1.702 h -20.611 z m 62.174,11.996 -10.452,-27.024 h -2.101 l -10.402,27.024 -10.403,-27.024 h -2.295 l 11.575,29.019 h 2.101 l 10.452,-26.694 10.403,26.694 h 2.1 l 11.575,-29.019 h -2.197 z m 46.935,-10.71 -12.455,-16.314 h -2.197 l 13.675,18.474 v 10.545 h 2.002 v -10.628 l 13.48,-18.391 h -2.198 z m 43.737,-14.551 c -2.719,-1.314 -5.674,-1.972 -8.864,-1.972 -3.192,0 -6.147,0.657 -8.865,1.972 -2.719,1.315 -4.868,3.093 -6.447,5.335 -1.58,2.241 -2.369,4.69 -2.369,7.348 0,2.658 0.789,5.113 2.369,7.369 1.579,2.256 3.728,4.048 6.447,5.377 2.718,1.327 5.673,1.992 8.865,1.992 3.19,0 6.145,-0.665 8.864,-1.992 2.719,-1.329 4.868,-3.121 6.447,-5.377 1.579,-2.256 2.369,-4.712 2.369,-7.369 0,-2.657 -0.79,-5.106 -2.369,-7.348 -1.579,-2.242 -3.728,-4.019 -6.447,-5.335 z m 4.616,19.201 c -1.4,1.993 -3.296,3.578 -5.69,4.753 -2.394,1.178 -4.991,1.765 -7.79,1.765 -2.801,0 -5.397,-0.587 -7.791,-1.765 -2.394,-1.175 -4.291,-2.76 -5.69,-4.753 -1.4,-1.992 -2.099,-4.164 -2.099,-6.518 0,-2.353 0.699,-4.519 2.099,-6.497 1.4,-1.978 3.297,-3.55 5.69,-4.711 2.393,-1.163 4.989,-1.744 7.791,-1.744 2.799,0 5.396,0.581 7.79,1.744 2.394,1.161 4.29,2.733 5.69,4.711 1.4,1.979 2.1,4.145 2.1,6.497 0,2.353 -0.7,4.525 -2.1,6.518 z m 37.9,-5.335 c 1.432,-1.591 2.148,-3.617 2.148,-6.081 0,-3.044 -1.148,-5.397 -3.443,-7.058 -2.296,-1.661 -5.56,-2.49 -9.792,-2.49 h -12.064 v 29.019 h 2.052 v -9.674 h 10.012 c 1.107,0 2.067,-0.056 2.881,-0.166 l 8.059,9.84 h 2.442 l -8.547,-10.13 c 2.736,-0.583 4.819,-1.668 6.252,-3.26 z m -11.038,2.013 h -10.061 v -15.94 h 10.061 c 3.582,0 6.342,0.678 8.279,2.033 1.937,1.357 2.906,3.308 2.906,5.854 0,2.603 -0.969,4.595 -2.906,5.978 -1.938,1.384 -4.697,2.075 -8.279,2.075 z m 36.679,-4.774 13.92,-12.868 h -2.54 l -20.416,18.723 v -18.723 h -2.052 v 29.019 h 2.052 v -7.805 l 7.521,-6.975 13.921,14.779 h 2.587 z"
   fill="#676767" />
	</g>
</g>
</svg>
