<?xml version="1.0" encoding="utf-8"?>
<!-- Generator: Adobe Illustrator 24.3.0, SVG Export Plug-In . SVG Version: 6.00 Build 0)  -->
<svg version="1.1" id="Layer_1" xmlns="http://www.w3.org/2000/svg" xmlns:xlink="http://www.w3.org/1999/xlink" x="0px" y="0px"
	 viewBox="0 0 34 28.2" style="enable-background:new 0 0 34 28.2;" xml:space="preserve">
<style type="text/css">
	.st0{fill-rule:evenodd;clip-rule:evenodd;}
</style>
<g>
	<g>
		<path class="st0" d="M32,0H2C0.9,0,0,0.9,0,2v0c0,1.1,0.9,2,2,2h30c1.1,0,2-0.9,2-2v0C34,0.9,33.1,0,32,0z M32,12.1H2
			c-1.1,0-2,0.9-2,2v0c0,1.1,0.9,2,2,2h30c1.1,0,2-0.9,2-2v0C34,13,33.1,12.1,32,12.1z M32,24.2H2c-1.1,0-2,0.9-2,2v0
			c0,1.1,0.9,2,2,2h30c1.1,0,2-0.9,2-2v0C34,25.1,33.1,24.2,32,24.2z"/>
	</g>
</g>
</svg>
