<?xml version="1.0" encoding="iso-8859-1"?>
<!-- Generator: Adobe Illustrator 19.0.0, SVG Export Plug-In . SVG Version: 6.00 Build 0)  -->
<svg version="1.1" id="Capa_1" xmlns="http://www.w3.org/2000/svg" xmlns:xlink="http://www.w3.org/1999/xlink" x="0px" y="0px"
	 viewBox="0 0 64 64" style="enable-background:new 0 0 64 64;" xml:space="preserve">
<g>
	<path d="M54,54h9c0.374,0,0.718-0.209,0.889-0.542c0.171-0.334,0.142-0.734-0.075-1.039L59.943,47H61
		c0.374,0,0.718-0.209,0.889-0.542c0.171-0.334,0.142-0.734-0.075-1.039L57.943,40H59c0.356,0,0.686-0.189,0.865-0.498
		c0.179-0.309,0.18-0.688,0.003-0.998L56.723,33H57c0.36,0,0.693-0.193,0.87-0.507c0.178-0.314,0.173-0.699-0.013-1.008l-6-10
		c-0.361-0.602-1.354-0.602-1.715,0l-6,10c-0.186,0.309-0.191,0.693-0.013,1.008C44.307,32.807,44.64,33,45,33h0.277l-3.145,5.504
		c-0.177,0.31-0.176,0.69,0.004,0.998C42.314,39.811,42.644,40,43,40h1.057l-3.871,5.419c-0.217,0.305-0.247,0.705-0.075,1.039
		C40.282,46.791,40.625,47,41,47h1.057l-3.871,5.419c-0.217,0.305-0.247,0.705-0.075,1.039C38.282,53.791,38.625,54,39,54h9v8H36v-7
		c0-0.007-0.004-0.012-0.004-0.018c-0.002-0.116-0.026-0.229-0.068-0.339c-0.011-0.028-0.026-0.053-0.039-0.08
		c-0.019-0.039-0.032-0.08-0.057-0.117l-4-6C31.646,48.167,31.334,48,31,48h-1v-1h-2v1h-9c-0.324,0-0.618,0.163-0.804,0.421
		c-0.007,0.01-0.021,0.013-0.028,0.024l-4,6c-0.025,0.037-0.038,0.078-0.057,0.117c-0.013,0.027-0.028,0.052-0.039,0.08
		c-0.042,0.11-0.066,0.223-0.068,0.339C14.004,54.988,14,54.993,14,55v7H0v2h15h8h12h29v-2H54V54z M51,23.943L55.234,31H55h-8
		h-0.234L51,23.943z M47.58,33h6.84l2.857,5H56H46h-1.277L47.58,33z M46.515,40h8.971l3.571,5H58H44h-1.057L46.515,40z M44.515,47
		h12.971l3.571,5H53h-4h-8.057L44.515,47z M50,54h2v8h-2V54z M30.465,50l2.666,4h-9.596l-2.667-4H30.465z M19,50.803L21.131,54
		h-4.263L19,50.803z M16,56h6v6h-2v-3h-2v3h-2V56z M24,62v-6h10v6H24z"/>
	<rect x="26" y="58" width="2" height="2"/>
	<rect x="30" y="58" width="2" height="2"/>
	<path d="M11.153,14.314c4.363-0.432,8.702-1.356,12.898-2.251c4.448-0.948,9.047-1.928,13.619-2.301
		c1.795-0.148,4.014-0.15,5.209,1.151c1.115,1.214,0.893,3.26,0.034,4.535c-1.118,1.661-3.099,2.478-4.565,2.87
		c-3.493,0.935-7.694,0.223-11.758-0.466c-6.247-1.058-12.706-2.152-17.298,2.439l1.414,1.414c3.863-3.861,9.54-2.899,15.55-1.882
		c4.276,0.725,8.696,1.475,12.61,0.426c1.795-0.481,4.243-1.511,5.706-3.685c1.499-2.226,1.404-5.237-0.221-7.006
		c-1.781-1.938-4.594-1.977-6.845-1.792c-4.7,0.384-9.363,1.378-13.873,2.339c-4.143,0.883-8.426,1.796-12.679,2.217
		c-1.814,0.183-3.837,0.214-5.064-0.91c-0.638-0.585-0.938-1.308-0.893-2.146c0.067-1.225,0.903-2.628,2.08-3.49
		c3.762-2.758,11.16-2.663,16.823-1.347l0.453-1.947c-5.66-1.317-13.891-1.664-18.456,1.682C4.213,5.398,3.103,7.312,3.002,9.158
		c-0.079,1.445,0.453,2.735,1.539,3.73C6.349,14.545,8.898,14.54,11.153,14.314z"/>
	<path d="M55.383,5.279c1.195,0.048,2.373,0.281,3.498,0.693c0.466,0.171,1.049,0.419,1.431,0.816
		c0.518,0.54,0.656,1.452,0.322,2.121c-0.341,0.681-1.103,1.166-1.803,1.551c-0.497,0.273-1.083,0.56-1.7,0.861
		c-1.713,0.838-3.656,1.789-4.838,2.971l1.414,1.414c0.947-0.946,2.73-1.818,4.303-2.588c0.648-0.317,1.263-0.619,1.784-0.906
		c0.914-0.502,2.038-1.229,2.628-2.408c0.717-1.434,0.442-3.243-0.667-4.4c-0.665-0.693-1.517-1.064-2.186-1.31
		c-1.321-0.483-2.703-0.758-4.106-0.813l-1.928-0.083C51.32,3.101,49.029,3,47,3v2c1.985,0,4.253,0.1,6.447,0.196L55.383,5.279z"/>
	<path d="M36,31v2c1.132,0,2.063-0.859,2.644-1.582c0.542-0.674,0.746-1.443,0.59-2.234c-0.33-1.665-2.148-2.775-2.697-3.077
		c-1.556-0.857-3.287-1.205-4.774-1.448c-1.953-0.319-4.127-0.346-6.847-0.149c-4.149,0.298-8.29,1.068-12.308,2.167l-0.579,0.283
		C10.559,27.37,9.17,28,7.768,28c-0.014,0-0.028,0-0.043,0c-1.279,0-2.934-0.692-3.742-1.929c-0.496-0.76-0.685-2.066-0.559-3.419
		c0.125-1.34,1.261-2.893,2.282-3.914l-1.414-1.384c-0.789,0.789-2.647,2.931-2.859,5.219c-0.168,1.813,0.127,3.436,0.876,4.584
		C3.363,28.771,5.384,30,7.715,30c0.018,0,0.035,0,0.053,0c1.676,0,3.263-0.685,4.798-1.113l0.57-0.401
		c3.892-1.066,7.903-1.753,11.923-2.042c2.56-0.184,4.587-0.133,6.381,0.16c1.319,0.214,2.842,0.529,4.131,1.24
		c0.898,0.495,1.598,1.203,1.7,1.722c0.029,0.145,0.029,0.328-0.186,0.597C36.591,30.776,36.165,31,36,31z"/>
	<polygon points="14,38 14,36 16,36 16,34 14,34 14,32 12,32 12,34 10,34 10,36 12,36 12,38 	"/>
	<polygon points="2,39 4,39 4,37 6,37 6,35 4,35 4,33 2,33 2,35 0,35 0,37 2,37 	"/>
	<polygon points="24,34 24,32 26,32 26,30 24,30 24,28 22,28 22,30 20,30 20,32 22,32 22,34 	"/>
	<polygon points="32,42 32,40 34,40 34,38 32,38 32,36 30,36 30,38 28,38 28,40 30,40 30,42 	"/>
	<polygon points="30,6 32,6 32,4 34,4 34,2 32,2 32,0 30,0 30,2 28,2 28,4 30,4 	"/>
	<polygon points="62,17 60,17 60,19 58,19 58,21 60,21 60,23 62,23 62,21 64,21 64,19 62,19 	"/>
	<rect width="2" height="2"/>
	<rect x="8" y="7" width="2" height="2"/>
	<rect y="14" width="2" height="2"/>
	<rect x="12" y="7" width="2" height="2"/>
	<rect x="6" y="22" width="2" height="2"/>
	<rect x="14" y="21" width="2" height="2"/>
	<rect x="27" y="13" width="2" height="2"/>
	<rect x="31" y="13" width="2" height="2"/>
	<rect x="35" y="13" width="2" height="2"/>
	<rect x="39" y="13" width="2" height="2"/>
	<rect x="7" y="16" width="2" height="2"/>
	<rect x="16" y="7" width="2" height="2"/>
	<rect x="18" y="21" width="2" height="2"/>
	<rect x="36" y="2" width="2" height="2"/>
	<rect x="40" y="2" width="2" height="2"/>
	<rect x="47" y="7" width="2" height="2"/>
	<rect x="51" y="7" width="2" height="2"/>
	<rect x="47" y="11" width="2" height="2"/>
	<rect x="46" y="16" width="2" height="2"/>
	<rect x="43" y="20" width="2" height="2"/>
	<rect x="54" y="18" width="2" height="2"/>
	<rect x="50" y="16" width="2" height="2"/>
	<rect x="39" y="22" width="2" height="2"/>
	<rect x="43" y="24" width="2" height="2"/>
	<rect x="62" width="2" height="2"/>
	<rect x="58" width="2" height="2"/>
	<rect x="62" y="13" width="2" height="2"/>
	<rect x="18" y="36" width="2" height="2"/>
</g>
<g>
</g>
<g>
</g>
<g>
</g>
<g>
</g>
<g>
</g>
<g>
</g>
<g>
</g>
<g>
</g>
<g>
</g>
<g>
</g>
<g>
</g>
<g>
</g>
<g>
</g>
<g>
</g>
<g>
</g>
</svg>
