<?xml version="1.0" encoding="iso-8859-1"?>
<!-- Generator: Adobe Illustrator 19.0.0, SVG Export Plug-In . SVG Version: 6.00 Build 0)  -->
<svg version="1.1" id="Layer_1" xmlns="http://www.w3.org/2000/svg" xmlns:xlink="http://www.w3.org/1999/xlink" x="0px" y="0px"
	 viewBox="0 0 512 512" style="enable-background:new 0 0 512 512;" xml:space="preserve">
<g>
	<g>
		<path d="M256,244.87H89.044c-9.22,0-16.696,7.475-16.696,16.696v166.956c0,9.22,7.475,16.696,16.696,16.696H256
			c9.22,0,16.696-7.475,16.696-16.696V261.565C272.696,252.345,265.22,244.87,256,244.87z M239.304,411.826H105.739V278.261h133.565
			V411.826z"/>
	</g>
</g>
<g>
	<g>
		<path d="M456.348,0c-4.655,0-391.12,0-400.696,0C28.034,0,5.565,22.469,5.565,50.087c0,11.987,0,433.765,0,445.217
			c0,9.22,7.475,16.696,16.696,16.696c3.064,0,457.728,0,467.478,0c9.22,0,16.696-7.475,16.696-16.696c0-11.443,0-433.234,0-445.217
			C506.435,22.469,483.966,0,456.348,0z M372.87,33.391h33.391v116.87c0,9.206-7.49,16.696-16.696,16.696
			c-9.206,0-16.696-7.49-16.696-16.696V33.391z M306.087,33.391h33.391v116.87c0,9.206-7.49,16.696-16.696,16.696
			c-9.206,0-16.696-7.49-16.696-16.696V33.391z M239.304,33.391h33.391v116.87c0,9.206-7.49,16.696-16.696,16.696
			c-9.206,0-16.696-7.49-16.696-16.696V33.391z M172.522,33.391h33.391v116.87c0,9.206-7.49,16.696-16.696,16.696
			s-16.696-7.49-16.696-16.696V33.391z M105.739,33.391h33.391v116.87c0,9.206-7.49,16.696-16.696,16.696
			c-9.206,0-16.696-7.49-16.696-16.696V33.391z M38.957,50.087c0-9.206,7.49-16.696,16.696-16.696h16.696v116.87
			c0,9.206-7.49,16.696-16.696,16.696c-9.206,0-16.696-7.49-16.696-16.696V50.087z M406.261,478.609h-66.783v-50.087h66.783V478.609
			z M406.261,395.13h-66.783v-33.391h66.783V395.13z M406.261,328.348h-66.783v-50.087h66.783V328.348z M473.043,478.609h-33.391
			V261.565c0-9.22-7.475-16.696-16.696-16.696H322.783c-9.22,0-16.696,7.475-16.696,16.696v217.043H38.957V197.476
			c5.226,1.853,10.843,2.872,16.696,2.872c12.819,0,24.523-4.846,33.391-12.794c8.869,7.948,20.572,12.794,33.391,12.794
			c12.819,0,24.523-4.846,33.391-12.794c8.869,7.949,20.572,12.794,33.391,12.794s24.523-4.846,33.391-12.794
			c8.869,7.949,20.572,12.794,33.391,12.794c12.819,0,24.523-4.846,33.391-12.794c8.869,7.949,20.572,12.794,33.391,12.794
			s24.523-4.846,33.391-12.794c8.869,7.949,20.572,12.794,33.391,12.794c12.819,0,24.523-4.846,33.391-12.794
			c8.869,7.949,20.572,12.794,33.391,12.794c5.852,0,11.47-1.018,16.696-2.872V478.609z M473.043,150.261
			c0,9.206-7.49,16.696-16.696,16.696c-9.206,0-16.696-7.49-16.696-16.696V33.391h16.696c9.206,0,16.696,7.49,16.696,16.696V150.261
			z"/>
	</g>
</g>
<g>
	<g>
		<path d="M201.022,316.542c-6.519-6.519-17.091-6.519-23.611,0l-33.391,33.391c-6.52,6.519-6.52,17.091,0,23.611
			c6.521,6.521,17.092,6.52,23.611,0l33.391-33.391C207.543,333.634,207.543,323.062,201.022,316.542z"/>
	</g>
</g>
<g>
</g>
<g>
</g>
<g>
</g>
<g>
</g>
<g>
</g>
<g>
</g>
<g>
</g>
<g>
</g>
<g>
</g>
<g>
</g>
<g>
</g>
<g>
</g>
<g>
</g>
<g>
</g>
<g>
</g>
</svg>
