<?xml version="1.0" encoding="utf-8"?>
<!-- Generator: Adobe Illustrator 24.3.0, SVG Export Plug-In . SVG Version: 6.00 Build 0)  -->
<svg version="1.1" id="Layer_1" xmlns="http://www.w3.org/2000/svg" xmlns:xlink="http://www.w3.org/1999/xlink" x="0px" y="0px"
	 viewBox="0 0 17.1 12.8" style="enable-background:new 0 0 17.1 12.8;" xml:space="preserve">
<path fill="#999999" d="M0,0v12.8h17.1V0H0z M9.6,7.5c-0.7,0.7-1.4,0.7-2.1,0C6.9,6.8,3.2,2.7,1.7,1h13.7C13.9,2.8,10.3,6.9,9.6,7.5z M5.8,7.1
	L1,11.3V1.8C2.2,3.1,4.5,5.6,5.8,7.1z M6.5,7.9C6.6,8,6.8,8.1,6.8,8.2C7.4,8.7,8,9,8.6,9c0.6,0,1.2-0.3,1.8-0.8
	c0.1-0.1,0.2-0.2,0.3-0.3l4.6,3.9H1.9L6.5,7.9z M11.4,7.1C12.7,5.6,15,3,16.1,1.7v9.5L11.4,7.1z"/>
</svg>
